<svg xmlns="http://www.w3.org/2000/svg" viewBox="0 0 29 29"><path fill="transparent" d="M0,0 h29v29H0z" shape-rendering="crispEdges"></path><path fill="#000000" d="M0 0h7v1H0zM9 0h1v1H9zM13 0h1v1H13zM17 0h1v1H17zM22,0 h7v1H22zM0 1h1v1H0zM6 1h1v1H6zM8 1h2v1H8zM11 1h1v1H11zM13 1h2v1H13zM16 1h2v1H16zM22 1h1v1H22zM28,1 h1v1H28zM0 2h1v1H0zM2 2h3v1H2zM6 2h1v1H6zM8 2h5v1H8zM19 2h1v1H19zM22 2h1v1H22zM24 2h3v1H24zM28,2 h1v1H28zM0 3h1v1H0zM2 3h3v1H2zM6 3h1v1H6zM8 3h3v1H8zM13 3h2v1H13zM16 3h2v1H16zM19 3h1v1H19zM22 3h1v1H22zM24 3h3v1H24zM28,3 h1v1H28zM0 4h1v1H0zM2 4h3v1H2zM6 4h1v1H6zM9 4h1v1H9zM14 4h1v1H14zM16 4h1v1H16zM19 4h2v1H19zM22 4h1v1H22zM24 4h3v1H24zM28,4 h1v1H28zM0 5h1v1H0zM6 5h1v1H6zM9 5h1v1H9zM14 5h1v1H14zM17 5h2v1H17zM22 5h1v1H22zM28,5 h1v1H28zM0 6h7v1H0zM8 6h1v1H8zM10 6h1v1H10zM12 6h1v1H12zM14 6h1v1H14zM16 6h1v1H16zM18 6h1v1H18zM20 6h1v1H20zM22,6 h7v1H22zM8 7h5v1H8zM19 7h2v1H19zM0 8h1v1H0zM6 8h1v1H6zM8 8h1v1H8zM10 8h1v1H10zM12 8h3v1H12zM17 8h1v1H17zM20 8h3v1H20zM25 8h3v1H25zM3 9h1v1H3zM5 9h1v1H5zM7 9h1v1H7zM10 9h2v1H10zM13 9h1v1H13zM15 9h1v1H15zM17 9h1v1H17zM19 9h3v1H19zM23 9h2v1H23zM26 9h2v1H26zM0 10h3v1H0zM6 10h2v1H6zM11 10h2v1H11zM15 10h4v1H15zM20 10h6v1H20zM1 11h2v1H1zM4 11h1v1H4zM8 11h2v1H8zM11 11h1v1H11zM18 11h1v1H18zM21 11h1v1H21zM25 11h1v1H25zM27 11h1v1H27zM2 12h1v1H2zM6 12h1v1H6zM10 12h3v1H10zM15 12h2v1H15zM21 12h2v1H21zM27,12 h2v1H27zM0 13h6v1H0zM9 13h1v1H9zM11 13h3v1H11zM15 13h2v1H15zM18 13h5v1H18zM24 13h2v1H24zM27,13 h2v1H27zM6 14h1v1H6zM8 14h2v1H8zM13 14h1v1H13zM15 14h2v1H15zM21 14h1v1H21zM23 14h1v1H23zM26 14h2v1H26zM0 15h1v1H0zM2 15h4v1H2zM8 15h2v1H8zM14 15h1v1H14zM23 15h5v1H23zM0 16h2v1H0zM6 16h2v1H6zM13 16h3v1H13zM17 16h2v1H17zM20 16h1v1H20zM23 16h1v1H23zM26 16h2v1H26zM0 17h1v1H0zM2 17h1v1H2zM7 17h4v1H7zM13 17h1v1H13zM15 17h3v1H15zM19 17h4v1H19zM24 17h1v1H24zM28,17 h1v1H28zM0 18h2v1H0zM4 18h5v1H4zM10 18h2v1H10zM14 18h2v1H14zM17 18h8v1H17zM26 18h1v1H26zM28,18 h1v1H28zM0 19h1v1H0zM3 19h1v1H3zM7 19h1v1H7zM10 19h1v1H10zM12 19h1v1H12zM15 19h2v1H15zM28,19 h1v1H28zM0 20h1v1H0zM2 20h3v1H2zM6 20h2v1H6zM10 20h1v1H10zM12 20h2v1H12zM15 20h13v1H15zM8 21h2v1H8zM11 21h2v1H11zM15 21h2v1H15zM20 21h1v1H20zM24 21h1v1H24zM26 21h1v1H26zM0 22h7v1H0zM11 22h5v1H11zM17 22h1v1H17zM19 22h2v1H19zM22 22h1v1H22zM24 22h1v1H24zM0 23h1v1H0zM6 23h1v1H6zM12 23h1v1H12zM15 23h2v1H15zM18 23h3v1H18zM24 23h2v1H24zM28,23 h1v1H28zM0 24h1v1H0zM2 24h3v1H2zM6 24h1v1H6zM9 24h1v1H9zM11 24h1v1H11zM13 24h2v1H13zM16 24h1v1H16zM19 24h6v1H19zM27 24h1v1H27zM0 25h1v1H0zM2 25h3v1H2zM6 25h1v1H6zM12 25h2v1H12zM15 25h4v1H15zM20 25h2v1H20zM23 25h1v1H23zM25 25h1v1H25zM28,25 h1v1H28zM0 26h1v1H0zM2 26h3v1H2zM6 26h1v1H6zM9 26h1v1H9zM12 26h1v1H12zM14 26h5v1H14zM20 26h1v1H20zM22 26h3v1H22zM26 26h2v1H26zM0 27h1v1H0zM6 27h1v1H6zM9 27h1v1H9zM15 27h2v1H15zM19 27h1v1H19zM22 27h1v1H22zM25 27h2v1H25zM28,27 h1v1H28zM0 28h7v1H0zM8 28h2v1H8zM11 28h1v1H11zM14 28h4v1H14zM19 28h1v1H19zM21 28h6v1H21z" shape-rendering="crispEdges"></path></svg>